<svg width="1439" height="573" viewBox="0 0 1439 573" fill="none" xmlns="http://www.w3.org/2000/svg">
<g clip-path="url(#clip0_427_115)">
<rect width="1439" height="573" fill="#2B2B2B"/>
<rect x="-71.6" y="12.4" width="161.2" height="99.2" rx="10.6" fill="#FFCD00" fill-opacity="0.88"/>
<rect x="-71.6" y="12.4" width="161.2" height="99.2" rx="10.6" stroke="#FFD739" stroke-width="1.2"/>
<rect x="64.4" y="142.4" width="161.2" height="99.2" rx="10.6" fill="#FFCD00" fill-opacity="0.88"/>
<rect x="64.4" y="142.4" width="161.2" height="99.2" rx="10.6" stroke="#FFD739" stroke-width="1.2"/>
<rect x="979.4" y="142.4" width="161.2" height="99.2" rx="10.6" fill="#FFCD00" fill-opacity="0.88"/>
<rect x="979.4" y="142.4" width="161.2" height="99.2" rx="10.6" stroke="#FFD739" stroke-width="1.2"/>
<rect x="111.4" y="285.4" width="161.2" height="99.2" rx="10.6" fill="#FFCD00" fill-opacity="0.88"/>
<rect x="111.4" y="285.4" width="161.2" height="99.2" rx="10.6" stroke="#FFD739" stroke-width="1.2"/>
<rect x="167.4" y="428.4" width="161.2" height="99.2" rx="10.6" fill="#FFCD00" fill-opacity="0.88"/>
<rect x="167.4" y="428.4" width="161.2" height="99.2" rx="10.6" stroke="#FFD739" stroke-width="1.2"/>
<rect x="1198.4" y="428.4" width="161.2" height="99.2" rx="10.6" fill="#FFCD00" fill-opacity="0.88"/>
<rect x="1198.4" y="428.4" width="161.2" height="99.2" rx="10.6" stroke="#FFD739" stroke-width="1.2"/>
<rect x="533.4" y="428.4" width="161.2" height="99.2" rx="10.6" fill="#FFCD00" fill-opacity="0.88"/>
<rect x="533.4" y="428.4" width="161.2" height="99.2" rx="10.6" stroke="#FFD739" stroke-width="1.2"/>
<rect x="1209.4" y="285.4" width="161.2" height="99.2" rx="10.6" fill="#FFCD00" fill-opacity="0.88"/>
<rect x="1209.4" y="285.4" width="161.2" height="99.2" rx="10.6" stroke="#FFD739" stroke-width="1.2"/>
<rect x="660.4" y="12.4" width="161.2" height="99.2" rx="10.6" fill="#FFCD00" fill-opacity="0.88"/>
<rect x="660.4" y="12.4" width="161.2" height="99.2" rx="10.6" stroke="#FFD739" stroke-width="1.2"/>
<rect x="1209.4" y="12.4" width="161.2" height="99.2" rx="10.6" fill="#FFCD00" fill-opacity="0.88"/>
<rect x="1209.4" y="12.4" width="161.2" height="99.2" rx="10.6" stroke="#FFD739" stroke-width="1.2"/>
<rect x="248" y="143" width="160" height="98" rx="10" fill="#30714D"/>
<rect x="248.6" y="143.6" width="158.8" height="96.8" rx="9.4" stroke="#33FF00" stroke-opacity="0.4" stroke-width="1.2"/>
<rect x="-71" y="286" width="160" height="98" rx="10" fill="#30714D"/>
<rect x="-70.4" y="286.6" width="158.8" height="96.8" rx="9.4" stroke="#33FF00" stroke-opacity="0.4" stroke-width="1.2"/>
<rect x="-15" y="429" width="160" height="98" rx="10" fill="#30714D"/>
<rect x="-14.4" y="429.6" width="158.8" height="96.8" rx="9.4" stroke="#33FF00" stroke-opacity="0.4" stroke-width="1.2"/>
<rect x="1016" y="429" width="160" height="98" rx="10" fill="#30714D"/>
<rect x="1016.6" y="429.6" width="158.8" height="96.8" rx="9.4" stroke="#33FF00" stroke-opacity="0.4" stroke-width="1.2"/>
<rect x="351" y="429" width="160" height="98" rx="10" fill="#30714D"/>
<rect x="351.6" y="429.6" width="158.8" height="96.8" rx="9.4" stroke="#33FF00" stroke-opacity="0.4" stroke-width="1.2"/>
<rect x="1382" y="429" width="160" height="98" rx="10" fill="#30714D"/>
<rect x="1382.6" y="429.6" width="158.8" height="96.8" rx="9.4" stroke="#33FF00" stroke-opacity="0.4" stroke-width="1.2"/>
<rect x="1027" y="286" width="160" height="98" rx="10" fill="#30714D"/>
<rect x="1027.6" y="286.6" width="158.8" height="96.8" rx="9.4" stroke="#33FF00" stroke-opacity="0.4" stroke-width="1.2"/>
<rect x="1163" y="143" width="160" height="98" rx="10" fill="#30714D"/>
<rect x="1163.6" y="143.6" width="158.8" height="96.8" rx="9.4" stroke="#33FF00" stroke-opacity="0.4" stroke-width="1.2"/>
<rect x="844" y="13" width="160" height="98" rx="10" fill="#30714D"/>
<rect x="844.6" y="13.6" width="158.8" height="96.8" rx="9.4" stroke="#33FF00" stroke-opacity="0.4" stroke-width="1.2"/>
<rect x="1393" y="13" width="160" height="98" rx="10" fill="#30714D"/>
<rect x="1393.6" y="13.6" width="158.8" height="96.8" rx="9.4" stroke="#33FF00" stroke-opacity="0.4" stroke-width="1.2"/>
<rect x="-1" width="1440" height="573" fill="#2B2B2B" fill-opacity="0.91"/>
</g>
<defs>
<clipPath id="clip0_427_115">
<rect width="1439" height="573" fill="white"/>
</clipPath>
</defs>
</svg>
