<svg width="27" height="27" viewBox="0 0 27 27" fill="none" xmlns="http://www.w3.org/2000/svg">
<path d="M11.8125 2.95312C10.6494 2.95312 9.70312 3.89939 9.70312 5.0625V6.32812H5.48438C5.01863 6.32812 4.64062 6.70613 4.64062 7.17188C4.64062 7.63762 5.01863 8.01562 5.48438 8.01562H6.37427L7.08453 20.812C7.15963 22.1527 8.26884 23.2031 9.61166 23.2031H17.3883C18.7307 23.2031 19.8404 22.1527 19.9155 20.812L20.6257 8.01562H21.5156C21.9814 8.01562 22.3594 7.63762 22.3594 7.17188C22.3594 6.70613 21.9814 6.32812 21.5156 6.32812H17.2969V5.0625C17.2969 3.89939 16.3506 2.95312 15.1875 2.95312H11.8125ZM11.8125 4.64062H15.1875C15.4204 4.64062 15.6094 4.83005 15.6094 5.0625V6.32812H11.3906V5.0625C11.3906 4.83005 11.5796 4.64062 11.8125 4.64062ZM8.06342 8.01562H18.9366L18.2304 20.718C18.2055 21.1652 17.8359 21.5156 17.3883 21.5156H9.61166C9.16448 21.5156 8.79445 21.1656 8.76956 20.7188L8.06342 8.01562ZM13.5 9.80859C13.092 9.80859 12.7617 10.1393 12.7617 10.5469V18.9844C12.7617 19.3919 13.092 19.7227 13.5 19.7227C13.908 19.7227 14.2383 19.3919 14.2383 18.9844V10.5469C14.2383 10.1393 13.908 9.80859 13.5 9.80859ZM10.3961 9.80942C9.98898 9.82376 9.67025 10.1649 9.68417 10.5724L9.97833 19.0462C9.99225 19.4448 10.3201 19.7589 10.7158 19.7589C10.7246 19.7589 10.7333 19.7589 10.7422 19.7589C11.1493 19.7446 11.468 19.4026 11.4541 18.9951L11.1599 10.5213C11.1456 10.1142 10.8028 9.79971 10.3961 9.80942ZM16.6031 9.80942C16.1951 9.79803 15.8544 10.1142 15.8401 10.5213L15.5459 18.9951C15.5316 19.4026 15.8503 19.7446 16.2578 19.7589C16.2667 19.7593 16.2754 19.7589 16.2842 19.7589C16.6799 19.7589 17.0077 19.4448 17.0217 19.0462L17.3158 10.5724C17.3302 10.1649 17.0106 9.82376 16.6031 9.80942Z" fill="#F0F0F0"/>
</svg>
